<svg width="10" height="10" viewBox="0 0 10 10" fill="none" xmlns="http://www.w3.org/2000/svg">
<path fill-rule="evenodd" clip-rule="evenodd" d="M5.14996 2.45265C5.42896 2.45265 5.65515 2.67198 5.65515 2.94254C5.65515 3.21309 5.42896 3.43242 5.14996 3.43242C4.87096 3.43242 4.64478 3.21309 4.64478 2.94254C4.64478 2.67198 4.87096 2.45265 5.14996 2.45265Z" fill="#BABEC3"/>
<path fill-rule="evenodd" clip-rule="evenodd" d="M4.54347 4.21615C4.54347 4.05382 4.67916 3.92224 4.84657 3.92224H5.25072C5.41813 3.92224 5.55385 4.05382 5.55385 4.21615V6.95951C5.55385 7.12185 5.41813 7.25345 5.25072 7.25345C5.08332 7.25345 4.94763 7.12185 4.94763 6.95951V4.51009H4.84657C4.67916 4.51009 4.54347 4.37848 4.54347 4.21615Z" fill="#BABEC3"/>
<path fill-rule="evenodd" clip-rule="evenodd" d="M4.2404 6.95957C4.2404 6.79724 4.37612 6.66563 4.54353 6.66563H5.95806C6.12546 6.66563 6.26118 6.79724 6.26118 6.95957C6.26118 7.12191 6.12546 7.25348 5.95806 7.25348H4.54353C4.37612 7.25348 4.2404 7.12191 4.2404 6.95957Z" fill="#BABEC3"/>
</svg>
