<svg width="10" height="10" viewBox="0 0 10 10" fill="none" xmlns="http://www.w3.org/2000/svg">
<g clip-path="url(#clip0_1_290)">
<path fill-rule="evenodd" clip-rule="evenodd" d="M2.07758 2.02101C2.86348 1.25893 3.95006 0.787048 5.14972 0.787048C6.34938 0.787048 7.43594 1.25893 8.22184 2.02101C9.00775 2.7831 9.49438 3.83675 9.49438 5.00006C9.49438 6.16336 9.00775 7.217 8.22184 7.97909C7.43594 8.74118 6.34938 9.21306 5.14972 9.21306C3.95006 9.21306 2.86348 8.74118 2.07758 7.97909C1.29168 7.217 0.805054 6.16336 0.805054 5.00006C0.805054 3.83675 1.29168 2.7831 2.07758 2.02101ZM5.14972 1.37491C4.11731 1.37491 3.18313 1.78035 2.50624 2.43669C1.82939 3.09306 1.41128 3.99894 1.41128 5.00006C1.41128 6.00118 1.82939 6.90706 2.50625 7.56342C3.18313 8.21975 4.11731 8.62521 5.14972 8.62521C6.18213 8.62521 7.11631 8.21975 7.79319 7.56342C8.47003 6.90706 8.88816 6.00118 8.88816 5.00006C8.88816 3.99894 8.47003 3.09303 7.79319 2.43669C7.11631 1.78035 6.18213 1.37491 5.14972 1.37491Z" fill="#BABEC3"/>
<path fill-rule="evenodd" clip-rule="evenodd" d="M5.14996 2.45264C5.42896 2.45264 5.65515 2.67197 5.65515 2.94252C5.65515 3.21308 5.42896 3.43241 5.14996 3.43241C4.87096 3.43241 4.64478 3.21308 4.64478 2.94252C4.64478 2.67197 4.87096 2.45264 5.14996 2.45264Z" fill="#BABEC3"/>
<path fill-rule="evenodd" clip-rule="evenodd" d="M4.54347 4.21615C4.54347 4.05382 4.67916 3.92224 4.84657 3.92224H5.25072C5.41813 3.92224 5.55385 4.05382 5.55385 4.21615V6.95951C5.55385 7.12185 5.41813 7.25345 5.25072 7.25345C5.08332 7.25345 4.94763 7.12185 4.94763 6.95951V4.51009H4.84657C4.67916 4.51009 4.54347 4.37848 4.54347 4.21615Z" fill="#BABEC3"/>
<path fill-rule="evenodd" clip-rule="evenodd" d="M4.2404 6.95959C4.2404 6.79726 4.37612 6.66565 4.54353 6.66565H5.95806C6.12546 6.66565 6.26118 6.79726 6.26118 6.95959C6.26118 7.12192 6.12546 7.2535 5.95806 7.2535H4.54353C4.37612 7.2535 4.2404 7.12192 4.2404 6.95959Z" fill="#BABEC3"/>
</g>
<defs>
<clipPath id="clip0_1_290">
<rect width="10" height="10" fill="white"/>
</clipPath>
</defs>
</svg>
