<svg width="20" height="20" viewBox="0 0 20 20" fill="none" xmlns="http://www.w3.org/2000/svg">
<path fill-rule="evenodd" clip-rule="evenodd" d="M3.66552 3.99892C5.286 2.46375 7.52643 1.51318 10 1.51318C12.4736 1.51318 14.714 2.46375 16.3345 3.99892C17.9549 5.53411 18.9584 7.65663 18.9584 10C18.9584 12.3434 17.9549 14.4659 16.3345 16.0011C14.714 17.5362 12.4736 18.4869 10 18.4869C7.52643 18.4869 5.286 17.5362 3.66552 16.0011C2.04506 14.4659 1.04169 12.3434 1.04169 10C1.04169 7.65663 2.04506 5.53411 3.66552 3.99892ZM10 2.69739C7.87128 2.69739 5.94504 3.51412 4.5494 4.83629C3.15378 6.15848 2.29169 7.98332 2.29169 10C2.29169 12.0168 3.15379 13.8416 4.54941 15.1637C5.94504 16.4859 7.87128 17.3027 10 17.3027C12.1288 17.3027 14.055 16.4859 15.4506 15.1637C16.8462 13.8416 17.7084 12.0168 17.7084 10C17.7084 7.98332 16.8462 6.15847 15.4506 4.83629C14.055 3.51412 12.1288 2.69739 10 2.69739Z" fill="#626E79"/>
<path fill-rule="evenodd" clip-rule="evenodd" d="M14.6086 7.21285C14.8527 7.44408 14.8527 7.81899 14.6086 8.05022L9.60863 12.787C9.36456 13.0183 8.96882 13.0183 8.72475 12.787L6.22475 10.4186C5.98067 10.1874 5.98067 9.81251 6.22475 9.58127C6.46882 9.35004 6.86456 9.35004 7.10863 9.58127L9.16669 11.531L13.7248 7.21285C13.9688 6.98162 14.3646 6.98162 14.6086 7.21285Z" fill="#626E79"/>
</svg>
